<svg width="101" height="101" viewBox="0 0 101 101" fill="none" xmlns="http://www.w3.org/2000/svg">
<path d="M96.96 0H4.04C1.80537 0 0 1.80537 0 4.04V96.96C0 99.1946 1.80537 101 4.04 101H96.96C99.1946 101 101 99.1946 101 96.96V4.04C101 1.80537 99.1946 0 96.96 0ZM61.4206 30.1611H78.8936V34.4157H61.4206V30.1611ZM50.5 65.246C49.6827 66.7973 48.5157 68.1373 47.0913 69.1597C45.6015 70.195 43.9476 70.9525 42.1928 71.3944C40.3567 71.8864 38.4627 72.1284 36.562 72.114H15.655V29.0501H35.9813C38.0391 29.0501 39.9076 29.2395 41.612 29.593C43.3037 29.9465 44.743 30.5525 45.955 31.3731C47.1544 32.1937 48.1012 33.2921 48.7704 34.6556C49.4269 36.0065 49.7677 37.6982 49.7677 39.7056C49.7677 41.8771 49.2754 43.6699 48.2906 45.1217C47.2933 46.5736 45.854 47.7477 43.8971 48.6694C46.561 49.4269 48.5179 50.7778 49.8056 52.6715C51.1186 54.5905 51.7625 56.8882 51.7625 59.59C51.7625 61.7868 51.3459 63.6679 50.5 65.246ZM85.6985 58.58H63.1755C63.1755 61.0293 64.0214 63.3775 65.2965 64.64C66.5843 65.8899 68.4275 66.5211 70.8389 66.5211C72.5811 66.5211 74.0582 66.0792 75.3207 65.2081C76.5706 64.337 77.3281 63.4154 77.6059 62.4559H85.1556C83.9436 66.2055 82.1004 68.882 79.6006 70.498C77.1261 72.114 74.0961 72.922 70.5737 72.922C68.1119 72.922 65.9025 72.518 63.9204 71.7479C62.014 71.003 60.297 69.8667 58.883 68.4022C57.4888 66.8983 56.4112 65.1294 55.7141 63.2007C54.944 61.0671 54.5653 58.8199 54.5905 56.56C54.5905 54.2244 54.9819 52.0529 55.7394 50.0329C57.1912 46.1065 60.2086 42.9629 64.0592 41.3342C66.1171 40.4757 68.3265 40.0465 70.5611 40.0718C73.2124 40.0718 75.5101 40.5768 77.5049 41.612C79.4252 42.6006 81.0926 44.0174 82.3781 45.753C83.6533 47.4826 84.5496 49.4521 85.1178 51.6741C85.6606 53.8582 85.85 56.156 85.6985 58.58ZM70.296 46.5105C68.9325 46.5105 67.7836 46.7504 66.8999 47.2175C66.0161 47.6846 65.2839 48.2654 64.7284 48.9345C64.1993 49.5806 63.8083 50.3282 63.5795 51.1312C63.3775 51.8004 63.2386 52.4821 63.1881 53.1765H77.1387C76.9368 50.9924 76.1793 49.3764 75.1693 48.2401C74.1087 47.1165 72.4044 46.5105 70.296 46.5105ZM38.9229 45.2354C40.0212 44.44 40.5515 43.127 40.5515 41.3216C40.5894 40.4631 40.4126 39.6173 40.0339 38.8471C39.693 38.2285 39.188 37.7109 38.5694 37.3447C37.9279 36.9558 37.2155 36.6983 36.4736 36.5872C35.6656 36.4357 34.845 36.36 34.037 36.3726H25.1616V46.4347H34.7692C36.4231 46.4474 37.8245 46.0434 38.9229 45.2354ZM40.4126 54.3254C39.1754 53.3785 37.5215 52.9114 35.4636 52.9114H25.1364V64.7789H35.2616C36.2085 64.7789 37.0796 64.6905 37.9255 64.5137C38.7714 64.337 39.5289 64.034 40.1728 63.6047C40.8166 63.1881 41.3343 62.62 41.7256 61.8878C42.1044 61.1555 42.2938 60.2212 42.2938 59.0976C42.2938 56.863 41.6625 55.2849 40.4126 54.3254Z" fill="black"/>
</svg>
