<svg width="101" height="101" viewBox="0 0 101 101" fill="none" xmlns="http://www.w3.org/2000/svg">
<path d="M91.5312 0H9.46875C4.26094 0 0 4.26094 0 9.46875V91.5312C0 96.7391 4.26094 101 9.46875 101H91.5312C96.7391 101 101 96.7391 101 91.5312V9.46875C101 4.26094 96.7391 0 91.5312 0ZM81.8037 70.7L72.5685 70.8389C72.5685 70.8389 70.5737 71.2366 67.973 69.4375C64.5201 67.0703 61.2628 60.8967 58.7189 61.7047C56.156 62.5127 56.2318 68.0551 56.2318 68.0551C56.2318 68.0551 56.2507 69.2418 55.6573 69.8668C55.0261 70.5548 53.7636 70.6937 53.7636 70.6937H49.6415C49.6415 70.6937 40.5262 71.2492 32.4967 62.8788C23.735 53.7636 16.0085 35.6782 16.0085 35.6782C16.0085 35.6782 15.554 34.4915 16.0464 33.9234C16.5956 33.2732 18.079 33.2353 18.079 33.2353L27.9644 33.1785C27.9644 33.1785 28.8923 33.3363 29.5614 33.8287C30.1169 34.2264 30.4073 34.9902 30.4073 34.9902C30.4073 34.9902 32.0044 39.0365 34.1191 42.6851C38.2411 49.8056 40.1727 51.3648 41.5741 50.6136C43.6068 49.5089 42.9944 40.5326 42.9944 40.5326C42.9944 40.5326 43.0323 37.2753 41.9718 35.8361C41.1449 34.7124 39.5857 34.3779 38.9166 34.2958C38.3611 34.2137 39.2701 32.9323 40.4568 32.3452C42.2306 31.4741 45.3679 31.4173 49.0797 31.4552C51.9582 31.4741 52.8104 31.6698 53.934 31.9286C57.3491 32.7556 56.1812 35.9308 56.1812 43.5499C56.1812 45.9992 55.7457 49.4269 57.5006 50.5505C58.2518 51.0429 60.1013 50.6263 64.741 42.7609C66.9314 39.0302 68.5853 34.6556 68.5853 34.6556C68.5853 34.6556 68.9388 33.8666 69.4943 33.532C70.0687 33.1974 70.8389 33.2984 70.8389 33.2984L81.2356 33.2416C81.2356 33.2416 84.3539 32.8692 84.8652 34.2895C85.3955 35.7666 83.7038 39.2196 79.4618 44.8819C72.4991 54.1739 71.71 53.3027 77.5112 58.6684C83.0346 63.8004 84.1772 66.3002 84.3792 66.6158C86.6264 70.4033 81.8163 70.7 81.8163 70.7H81.8037Z" fill="#1559C0"/>
</svg>
