<svg width="101" height="101" viewBox="0 0 101 101" fill="none" xmlns="http://www.w3.org/2000/svg">
<path d="M50.5 0C22.6094 0 0 22.6094 0 50.5C0 78.3906 22.6094 101 50.5 101C78.3906 101 101 78.3906 101 50.5C101 22.6094 78.3906 0 50.5 0Z" fill="#40B3E0"/>
<path d="M75.0726 29.0493L66.0525 74.5265C66.0525 74.5265 64.7912 77.6804 61.322 76.1666L40.5074 60.2086L32.9387 56.5505L20.1977 52.2612C20.1977 52.2612 18.2424 51.5676 18.053 50.0538C17.8636 48.54 20.2608 47.7201 20.2608 47.7201L70.9092 27.8515C70.9092 27.8515 75.0723 26.0225 75.0723 29.0501" fill="white"/>
<path d="M38.9079 74.0153C38.9079 74.0153 38.3003 73.9585 37.5428 71.5613C36.7865 69.1645 32.9386 56.5498 32.9386 56.5498L63.5298 37.1231C63.5298 37.1231 65.2961 36.0507 65.233 37.1231C65.233 37.1231 65.5482 37.3125 64.6017 38.1954C63.656 39.0788 40.5708 59.8299 40.5708 59.8299" fill="#D2E5F1"/>
<path d="M48.4882 66.3266L40.2556 73.833C40.2556 73.833 39.6117 74.3214 38.9078 74.0152L40.4844 60.0725" fill="#B5CFE4"/>
</svg>
