<svg width="101" height="101" viewBox="0 0 101 101" fill="none" xmlns="http://www.w3.org/2000/svg">
<path d="M18.442 0C8.22594 0 0 8.22594 0 18.442V82.5581C0 92.7742 8.22594 101 18.442 101H53.1924V61.5154H42.7515V47.2996H53.1924V35.1544C53.1924 25.6124 59.3613 16.8512 73.5722 16.8512C79.326 16.8512 83.5807 17.4036 83.5807 17.4036L83.2461 30.6789C83.2461 30.6789 78.9069 30.6378 74.1719 30.6378C69.0472 30.6378 68.2255 32.999 68.2255 36.9188V47.2997H83.6533L82.981 61.5155H68.2255V101H82.558C92.7741 101 101 92.7743 101 82.5582V18.4421C101 8.22605 92.7741 0.000101 82.558 0.000101H18.4419L18.442 0Z" fill="#1559C0"/>
</svg>
